<svg viewBox="0 0 233 60" xmlns="http://www.w3.org/2000/svg" fill-rule="evenodd" clip-rule="evenodd" stroke-linejoin="round" stroke-miterlimit="2"><path fill="none" d="M0 0h232.5v60H0z"/><clipPath id="a"><path d="M0 0h232.5v60H0z"/></clipPath><g clip-path="url(#a)"><g fill="#025565"><path d="M43.5 60h11.3V30L69 60h9V0H67.5v30.8L54 0H43.5v60zM12.8 60H.3L25.9 0h12v60H25.5v-7.5H15L12.7 60zm6-16.5h7.4l1.5-21-8.9 21zM170.3 0l14.6 60h-12l-.8-7.5h-12l-1.5 7.5h-10.8l10.8-60h11.7zM162 43.5h8.7l-3.8-23.3-4.9 23.3zM201.8 60h-11.3V0h21.8c6.7 0 14.2 7.5 14.2 17.3 0 12.7-8.3 21-14.3 21h-10.4V60zm0-48.8V27h7.4c3.8 0 5.3-4.5 5.3-8.3 0-3-2.3-7.4-5.3-7.4h-7.4zM84 0h11.3v60H84zM112.5 0h-11.3v60h11.3V17.2l9 12 9.8-12V60h11.2V0h-11.3l-9.7 12-9-12z"/></g><g fill="#008278"><path d="M45 60h11.3V30l14.2 30h9V0H69v30.8L55.5 0H45v60zM14.3 60H1.8L27.4 0h12v60H27v-7.5H16.5L14.2 60zm6-16.5h7.4l1.5-21-8.9 21zM171.8 0l14.6 60h-12l-.8-7.5h-12l-1.5 7.5h-10.8L160 0h11.7zm-8.3 43.5h8.7l-3.8-23.3-4.9 23.3zM203.3 60H192V0h21.8c6.7 0 14.2 7.5 14.2 17.3 0 12.7-8.3 21-14.3 21h-10.4V60zm0-48.8V27h7.4c3.8 0 5.3-4.5 5.3-8.3 0-3-2.3-7.4-5.3-7.4h-7.4zM85.5 0h11.3v60H85.5zM114 0h-11.3v60H114V17.2l9 12 9.8-12V60H144V0h-11.3L123 12l-9-12z"/></g><g fill="#00b477"><path d="M46.1 60h11.3V30l14.2 30h9V0H70.1v30.8L56.6 0H46.1v60zM15.4 60H3L28.5 0h12v60H28.1v-7.5H17.6L15.4 60zm6-16.5h7.4l1.6-21-9 21zM172.9 0l14.6 60h-12l-.8-7.5h-12l-1.4 7.5h-11l11-60h11.6zm-8.3 43.5h8.7l-3.8-23.3-4.9 23.3zM204.4 60H193V0H215c6.7 0 14.2 7.5 14.2 17.3 0 12.7-8.2 21-14.2 21h-10.5V60zm0-48.8V27h7.5c3.7 0 5.2-4.5 5.2-8.3 0-3-2.2-7.4-5.2-7.4h-7.5zM86.6 0h11.3v60H86.6zM115.1 0H104v60H115V17.2l9 12 9.8-12V60H145V0H134L124 12l-9-12z"/></g><g fill="#b9f244"><path d="M47.3 60h11.2V30l14.3 30h9V0H71.3v30.8L57.8 0H47.3v60zM16.5 60H4.1L29.6 0h12v60H29.2v-7.5H18.9L16.4 60zm6-16.5H30l1.6-21-9 21zM174 0l14.6 60h-12l-.7-7.5h-12l-1.5 7.5h-10.9l10.9-60H174zm-8.2 43.5h8.6l-3.8-23.3-4.8 23.3zM205.5 60h-11.3V0H216c6.8 0 14.3 7.5 14.3 17.3 0 12.7-8.3 21-14.3 21h-10.5V60zm0-48.8V27h7.5c3.8 0 5.3-4.5 5.3-8.3 0-3-2.3-7.4-5.3-7.4h-7.5zM87.8 0h11.3v60H87.8zM116.3 0H105v60h11.3V17.2l9 12 9.7-12V60h11.3V0H135l-9.8 12-9-12z"/></g><g fill="#fbfe51"><path d="M48.4 60h11.2V30L74 60h9V0H72.4v30.8L58.9 0H48.4v60zM17.6 60H5.2L30.9 0h12v60H30.4v-7.5H19.9L17.6 60zm6.1-16.5H31l1.6-21-8.9 21zM175.1 0l14.7 60h-12l-.8-7.5h-12l-1.5 7.5h-10.9l10.9-60h11.6zM167 43.5h8.6l-3.7-23.3-5 23.3zM206.6 60h-11.2V0H217c6.8 0 14.3 7.5 14.3 17.3 0 12.7-8.3 21-14.3 21h-10.5V60zm0-48.8V27h7.5c3.8 0 5.3-4.5 5.3-8.3 0-3-2.3-7.4-5.3-7.4h-7.5zM88.9 0h11.3v60H88.9zM117.4 0H106v60h11.3V17.2l9 12 9.7-12V60h11.3V0H136l-9.7 12-9-12z"/></g></g></svg>